<svg viewBox="-47 0 395 396" xmlns="http://www.w3.org/2000/svg">
  <path d="M151 7C71 7 7 71 7 150v117c0 19 15 33 33 33h36v74c0 8 6 15 15 15h120c8 0 15-7 15-15v-74h35c18 0 33-14 33-33V150C294 71 230 7 151 7" fill="#999"/>
  <path d="M151 7V0C68 0 0 67 0 150v117c0 22 18 40 40 40h29v67c0 12 10 22 22 22h120c12 0 22-10 22-22v-67h28c22 0 40-18 40-40V150C301 67 234 0 151 0v14a136 136 0 0 1 136 136v117a26 26 0 0 1-26 27h-35a7 7 0 0 0-7 6v74c0 5-4 8-8 8H91c-5 0-9-3-9-8v-74a7 7 0 0 0-6-6H40a26 26 0 0 1-26-27V150A136 136 0 0 1 151 14z" fill="#54596e"/>
  <path d="M151 14A136 136 0 0 0 14 150v25a143 143 0 0 1 273 0v-25A136 136 0 0 0 151 14" fill="#8b8c90"/>
  <g fill="#54596e">
    <path d="M151 7C71 7 7 71 7 150v68c0-15 3-30 7-43v-25a136 136 0 0 1 233-96c25 24 40 58 40 96v25c5 13 7 28 7 43v-68C294 71 230 7 151 7"/>
    <path d="M274 242c0-23-30-52-53-52s-40 18-40 40 18 41 40 41 53-7 53-29zm0 0M31 242c0-23 29-52 52-52s40 18 40 40c0 23-18 41-40 41s-52-7-52-29zm0 0M103 369v20a7 7 0 1 0 14 0v-20a7 7 0 0 0-14 0M130 369v20a7 7 0 0 0 14 0v-20a7 7 0 1 0-14 0M157 369v20a7 7 0 1 0 14 0v-20a7 7 0 0 0-14 0M185 369v20a7 7 0 0 0 13 0v-20a7 7 0 1 0-13 0M147 265l-19 29c-2 3 0 6 3 6h39c3 0 5-3 4-6l-20-29c-1-3-5-3-7 0zm0 0"/>
  </g>
</svg>